<?xml version="1.0" encoding="UTF-8" standalone="no"?>
<!-- Generator: Adobe Illustrator 16.0.0, SVG Export Plug-In . SVG Version: 6.00 Build 0)  -->

<svg
   xmlns:dc="http://purl.org/dc/elements/1.1/"
   xmlns:cc="http://creativecommons.org/ns#"
   xmlns:rdf="http://www.w3.org/1999/02/22-rdf-syntax-ns#"
   xmlns:svg="http://www.w3.org/2000/svg"
   xmlns="http://www.w3.org/2000/svg"
   xmlns:sodipodi="http://sodipodi.sourceforge.net/DTD/sodipodi-0.dtd"
   xmlns:inkscape="http://www.inkscape.org/namespaces/inkscape"
   version="1.1"
   id="Layer_1"
   x="0px"
   y="0px"
   width="266.893px"
   height="266.895px"
   viewBox="0 0 266.893 266.895"
   enable-background="new 0 0 266.893 266.895"
   xml:space="preserve"
   sodipodi:docname="icon-google-colour.svg"
   inkscape:version="0.92.1 r15371"><metadata
   id="metadata9"><rdf:RDF><cc:Work
       rdf:about=""><dc:format>image/svg+xml</dc:format><dc:type
         rdf:resource="http://purl.org/dc/dcmitype/StillImage" /><dc:title></dc:title></cc:Work></rdf:RDF></metadata><defs
   id="defs7" /><sodipodi:namedview
   pagecolor="#ffffff"
   bordercolor="#666666"
   borderopacity="1"
   objecttolerance="10"
   gridtolerance="10"
   guidetolerance="10"
   inkscape:pageopacity="0"
   inkscape:pageshadow="2"
   inkscape:window-width="1280"
   inkscape:window-height="738"
   id="namedview5"
   showgrid="false"
   inkscape:zoom="2.0794695"
   inkscape:cx="125.50181"
   inkscape:cy="135.03914"
   inkscape:window-x="-8"
   inkscape:window-y="-8"
   inkscape:window-maximized="1"
   inkscape:current-layer="Layer_1" />


<path
   inkscape:connector-curvature="0"
   id="path6"
   d="m 265.56357,128.00434 c 0,3.03508 -2.48079,5.49768 -5.51586,5.49768 h -39.82868 v 39.84685 c 0,3.05326 -2.4626,5.51586 -5.51586,5.51586 h -11.34068 c -3.05325,0 -5.51585,-2.4626 -5.51585,-5.51586 v -39.84685 h -39.85593 c -3.01691,0 -5.4977,-2.4626 -5.4977,-5.49768 v -11.35886 c 0,-3.03508 2.48079,-5.51585 5.4977,-5.51585 h 39.84684 V 71.300946 c 0,-3.053257 2.4626,-5.51585 5.51586,-5.51585 h 11.34068 c 3.05325,0 5.51586,2.462593 5.51586,5.51585 v 39.828684 h 39.82867 c 3.03509,0 5.51586,2.48077 5.51586,5.51585 v 11.35886 z M 107.24844,248.2355 c -8.923507,2.57165 -18.546728,3.88927 -28.660645,3.88927 -11.249801,0 -22.081606,-1.29946 -32.168265,-3.85292 -19.537223,-4.91611 -33.985682,-14.26672 -40.7101209,-26.3071 -2.9078655,-5.21599 -4.379973,-10.7591 -4.379973,-16.50213 0,-5.92478 1.4175845,-11.92226 4.2073182,-17.87429 10.7227557,-22.80858 38.9199667,-38.13848 70.1704307,-38.13848 0.31805,0 0.617931,0 0.908714,0 -2.535294,-4.47085 -3.780223,-9.10526 -3.780223,-13.96684 0,-2.43534 0.318049,-4.89794 0.954136,-7.39689 -32.768008,-0.76331 -57.303126,-24.7623 -57.303126,-56.403513 0,-22.363311 17.856114,-44.117776 43.399898,-52.923158 7.651324,-2.644341 15.438951,-3.989229 23.108443,-3.989229 h 70.088653 c 2.39899,0 4.48902,1.544803 5.23415,3.816574 0.76333,2.289944 -0.0727,4.770718 -2.00824,6.179216 l -15.67521,11.340678 c -0.94506,0.672443 -2.08094,1.045015 -3.24409,1.045015 h -5.60673 c 7.26058,8.678163 11.50425,21.04568 11.50425,34.967088 0,15.366251 -7.76946,29.887399 -21.89987,40.946379 -10.91358,8.50552 -11.35885,10.82272 -11.35885,15.71157 0.14539,2.68068 7.76036,11.37703 16.12957,17.3018 19.5554,13.83962 26.83415,27.38847 26.83415,50.05164 0,23.58097 -17.96516,44.04508 -45.74437,52.10532 z m -4.39814,-75.71355 c -1.52663,-1.02684 -3.107779,-2.10821 -4.73437,-3.22592 -4.770715,-1.47211 -9.850391,-2.23542 -15.030035,-2.30812 H 82.43163 c -23.853587,0 -44.79022,14.46664 -44.79022,30.9506 0,17.91064 17.919723,31.96835 40.810083,31.96835 30.187277,0 45.489917,-10.40471 45.489917,-30.93242 0,-1.95373 -0.22718,-3.96197 -0.69062,-5.96113 -2.04459,-7.99663 -9.35969,-12.96726 -20.40049,-20.49136 z M 85.939249,109.93922 c 5.715763,0 10.541012,-2.2536 14.266711,-6.51544 5.86117,-6.651741 8.43281,-17.592585 6.90618,-29.214969 C 104.37694,53.426657 89.555903,36.1703 74.062427,35.715938 h -0.61792 c -5.488593,0 -10.368358,2.235422 -14.094061,6.497263 -5.788471,6.588132 -8.205634,17.001931 -6.688092,28.587959 2.717037,20.745809 17.85611,38.67461 33.031536,39.13806 z"
   style="fill:#e74c3c;stroke-width:9.08708;fill-opacity:0.98974359" /></svg>