<?xml version="1.0" encoding="UTF-8" standalone="no"?>
<!-- Generator: Adobe Illustrator 16.0.0, SVG Export Plug-In . SVG Version: 6.00 Build 0)  -->

<svg
   xmlns:dc="http://purl.org/dc/elements/1.1/"
   xmlns:cc="http://creativecommons.org/ns#"
   xmlns:rdf="http://www.w3.org/1999/02/22-rdf-syntax-ns#"
   xmlns:svg="http://www.w3.org/2000/svg"
   xmlns="http://www.w3.org/2000/svg"
   xmlns:sodipodi="http://sodipodi.sourceforge.net/DTD/sodipodi-0.dtd"
   xmlns:inkscape="http://www.inkscape.org/namespaces/inkscape"
   version="1.1"
   id="Layer_1"
   x="0px"
   y="0px"
   width="266.893px"
   height="266.895px"
   viewBox="0 0 266.893 266.895"
   enable-background="new 0 0 266.893 266.895"
   xml:space="preserve"
   sodipodi:docname="icon-pinterest-colour.svg"
   inkscape:version="0.92.1 r15371"><metadata
   id="metadata9"><rdf:RDF><cc:Work
       rdf:about=""><dc:format>image/svg+xml</dc:format><dc:type
         rdf:resource="http://purl.org/dc/dcmitype/StillImage" /><dc:title></dc:title></cc:Work></rdf:RDF></metadata><defs
   id="defs7" /><sodipodi:namedview
   pagecolor="#ffffff"
   bordercolor="#666666"
   borderopacity="1"
   objecttolerance="10"
   gridtolerance="10"
   guidetolerance="10"
   inkscape:pageopacity="0"
   inkscape:pageshadow="2"
   inkscape:window-width="1280"
   inkscape:window-height="738"
   id="namedview5"
   showgrid="false"
   inkscape:zoom="1.3947861"
   inkscape:cx="173.12107"
   inkscape:cy="97.621049"
   inkscape:window-x="-8"
   inkscape:window-y="-8"
   inkscape:window-maximized="1"
   inkscape:current-layer="Layer_1" />


<path
   inkscape:connector-curvature="0"
   d="m 150.54323,192.72445 c -16.0217,-1.2445 -22.7454,-9.1803 -35.30342,-16.80993 -6.90886,36.22455 -15.34787,70.95465 -40.343548,89.09437 C 67.180005,210.25977 86.224992,169.13857 95.068039,125.48475 79.988636,100.09959 96.88254,49.014508 128.68921,61.606246 167.82265,77.086373 94.799566,155.97618 143.81953,165.82963 195.00511,176.11621 215.89965,77.020908 184.16373,44.795662 138.30262,-1.7353095 50.672279,43.734999 61.448193,110.35576 c 2.622562,16.28752 19.449016,21.22846 6.723704,43.70606 C 38.821816,147.55567 30.063411,124.40755 31.190861,93.545166 33.005362,43.029432 76.578511,7.6625354 120.28458,2.7711854 175.55543,-3.4155748 227.43205,23.059343 234.59483,75.054317 242.65891,133.73729 209.64412,197.29508 150.54323,192.72445 Z"
   id="path2"
   style="fill:#cb2027;fill-opacity:0.98461537;stroke-width:0.66126126" /></svg>