<?xml version="1.0" encoding="UTF-8" standalone="no"?>
<!-- Generator: Adobe Illustrator 16.0.0, SVG Export Plug-In . SVG Version: 6.00 Build 0)  -->

<svg
   xmlns:dc="http://purl.org/dc/elements/1.1/"
   xmlns:cc="http://creativecommons.org/ns#"
   xmlns:rdf="http://www.w3.org/1999/02/22-rdf-syntax-ns#"
   xmlns:svg="http://www.w3.org/2000/svg"
   xmlns="http://www.w3.org/2000/svg"
   xmlns:sodipodi="http://sodipodi.sourceforge.net/DTD/sodipodi-0.dtd"
   xmlns:inkscape="http://www.inkscape.org/namespaces/inkscape"
   version="1.1"
   id="Layer_1"
   x="0px"
   y="0px"
   width="266.893px"
   height="266.895px"
   viewBox="0 0 266.893 266.895"
   enable-background="new 0 0 266.893 266.895"
   xml:space="preserve"
   sodipodi:docname="icon-tumbler-colour.svg"
   inkscape:version="0.92.1 r15371"><metadata
   id="metadata9"><rdf:RDF><cc:Work
       rdf:about=""><dc:format>image/svg+xml</dc:format><dc:type
         rdf:resource="http://purl.org/dc/dcmitype/StillImage" /><dc:title></dc:title></cc:Work></rdf:RDF></metadata><defs
   id="defs7" /><sodipodi:namedview
   pagecolor="#ffffff"
   bordercolor="#666666"
   borderopacity="1"
   objecttolerance="10"
   gridtolerance="10"
   guidetolerance="10"
   inkscape:pageopacity="0"
   inkscape:pageshadow="2"
   inkscape:window-width="1280"
   inkscape:window-height="738"
   id="namedview5"
   showgrid="false"
   inkscape:zoom="2.0794695"
   inkscape:cx="125.50181"
   inkscape:cy="135.03914"
   inkscape:window-x="-8"
   inkscape:window-y="-8"
   inkscape:window-maximized="1"
   inkscape:current-layer="Layer_1" />


<g
   transform="matrix(1.6565841,0,0,1.6565841,-81.703188,-70.668858)"
   id="g10"
   style="fill:#36465d;fill-opacity:1"><path
     style="fill:#36465d;fill-opacity:1"
     inkscape:connector-curvature="0"
     id="path8"
     d="m 168.08,170.918 c -2.969,1.416 -8.647,2.648 -12.881,2.754 -12.783,0.342 -15.264,-8.979 -15.367,-15.736 v -49.705 h 32.065 V 84.055 H 139.943 V 43.382 c 0,0 -23.008,0 -23.383,0 -0.385,0 -1.057,0.337 -1.152,1.192 -1.368,12.448 -7.192,34.296 -31.416,43.032 v 20.624 h 16.16 v 52.167 c 0,17.863 13.176,43.24 47.959,42.641 11.736,-0.201 24.77,-5.113 27.648,-9.354 l -7.679,-22.766" /></g></svg>