<?xml version="1.0" encoding="UTF-8" standalone="no"?>
<!-- Generator: Adobe Illustrator 16.0.0, SVG Export Plug-In . SVG Version: 6.00 Build 0)  -->

<svg
   xmlns:dc="http://purl.org/dc/elements/1.1/"
   xmlns:cc="http://creativecommons.org/ns#"
   xmlns:rdf="http://www.w3.org/1999/02/22-rdf-syntax-ns#"
   xmlns:svg="http://www.w3.org/2000/svg"
   xmlns="http://www.w3.org/2000/svg"
   xmlns:sodipodi="http://sodipodi.sourceforge.net/DTD/sodipodi-0.dtd"
   xmlns:inkscape="http://www.inkscape.org/namespaces/inkscape"
   version="1.1"
   id="Layer_1"
   x="0px"
   y="0px"
   width="266.893px"
   height="266.895px"
   viewBox="0 0 266.893 266.895"
   enable-background="new 0 0 266.893 266.895"
   xml:space="preserve"
   sodipodi:docname="icon-twitter-white.svg"
   inkscape:version="0.92.1 r15371"><metadata
   id="metadata9"><rdf:RDF><cc:Work
       rdf:about=""><dc:format>image/svg+xml</dc:format><dc:type
         rdf:resource="http://purl.org/dc/dcmitype/StillImage" /><dc:title></dc:title></cc:Work></rdf:RDF></metadata><defs
   id="defs7" /><sodipodi:namedview
   pagecolor="#ffffff"
   bordercolor="#666666"
   borderopacity="1"
   objecttolerance="10"
   gridtolerance="10"
   guidetolerance="10"
   inkscape:pageopacity="0"
   inkscape:pageshadow="2"
   inkscape:window-width="1280"
   inkscape:window-height="738"
   id="namedview5"
   showgrid="false"
   inkscape:zoom="2.0794695"
   inkscape:cx="133.4465"
   inkscape:cy="133.44749"
   inkscape:window-x="-8"
   inkscape:window-y="-8"
   inkscape:window-maximized="1"
   inkscape:current-layer="Layer_1" />


<path
   inkscape:connector-curvature="0"
   class="cls-2"
   d="m 87.066503,235.01646 c 94.339997,0 145.939997,-78.16 145.939997,-145.939997 0,-2.22 0,-4.43 -0.15,-6.63 a 104.36,104.36 0 0 0 25.59,-26.55 102.38,102.38 0 0 1 -29.46,8.07 51.47,51.47 0 0 0 22.55,-28.37 102.79,102.79 0 0 1 -32.57,12.45 51.34,51.34 0 0 0 -87.41,46.78 145.62,145.62 0 0 1 -105.709997,-53.59 51.33,51.33 0 0 0 15.88,68.469997 50.91,50.91 0 0 1 -23.28,-6.42 c 0,0.21 0,0.43 0,0.65 a 51.31,51.31 0 0 0 41.15,50.28 51.21,51.21 0 0 1 -23.16,0.88 51.35,51.35 0 0 0 47.92,35.62 102.92,102.92 0 0 1 -63.7,22 104.41,104.41 0 0 1 -12.2100003,-0.74 145.21,145.21 0 0 0 78.6200003,23"
   id="path10"
   style="fill:#ffffff" /></svg>